<?xml version="1.0" encoding="utf-8"?>
<svg xmlns="http://www.w3.org/2000/svg" viewBox="0 0 502 210.649" height="210.65" width="502" xmlns:bx="https://boxy-svg.com" preserveAspectRatio="none"><defs><bx:export><bx:file format="svg"/></bx:export></defs><g><g><path d="M187.934 169.537h-18.96V158.56c-7.19 8.24-13.284 12.4-19.927 12.4-5.826 0-9.876-2.747-11.9-7.717-1.23-3.02-2.103-7.736-2.103-14.663V68.744h18.957v81.833c.443 2.796 1.636 3.823 4.043 3.823 3.63 0 6.913-3.153 10.93-8.817V68.744h18.96v100.793zM102.109 139.597c.996 9.98-2.1 14.93-7.987 14.93s-8.98-4.95-7.98-14.93v-39.92c-1-9.98 2.093-14.657 7.98-14.657 5.89 0 8.993 4.677 7.996 14.657l-.01 39.92zm18.96-37.923c0-10.77-2.164-18.86-5.987-23.95-5.054-6.897-12.973-9.72-20.96-9.72-9.033 0-15.913 2.823-20.957 9.72-3.886 5.09-5.97 13.266-5.97 24.036l-.016 35.84c0 10.71 1.853 18.11 5.736 23.153 5.047 6.873 13.227 10.513 21.207 10.513 7.986 0 16.306-3.64 21.36-10.513 3.823-5.043 5.586-12.443 5.586-23.153v-35.926zM46.223 114.647v54.889h-19.96v-54.89S5.582 47.358 1.314 34.815H22.27L36.277 87.38l13.936-52.566H71.17l-24.947 79.833z" style="fill: rgb(255, 255, 255);"/></g><path d="M 268.763 169.537 L 248.807 169.537 L 248.807 54.77 L 227.851 54.77 L 227.851 35.835 L 290.72 35.811 L 290.72 54.771 L 268.763 54.771 Z M 440.413 107.683 L 457.377 107.663 L 457.377 96.77 C 457.377 87.55 454.993 84.773 449.003 84.773 C 442.97 84.773 440.413 87.317 440.413 96.647 Z M 476.373 122.633 L 440.413 122.633 L 440.413 140.556 C 440.347 149.763 442.97 154.399 449.173 154.399 C 453.62 154.399 456.21 151.983 457.243 147.149 C 457.413 146.166 457.376 141.856 457.376 134.609 L 476.336 134.609 L 476.336 137.436 C 476.336 143.256 475.86 147.379 475.696 149.189 C 475.086 153.192 473.67 156.816 471.47 160.012 C 466.473 167.256 459.06 170.822 449.62 170.822 C 440.17 170.822 432.977 167.419 427.75 160.606 C 423.914 155.616 421.454 148.199 421.454 137.603 L 421.454 102.676 C 421.454 92.013 423.69 83.777 427.53 78.733 C 432.753 71.91 439.947 68.297 449.173 68.297 C 458.237 68.297 465.43 71.91 470.49 78.733 C 474.27 83.777 476.37 91.577 476.37 102.233 Z M 390.513 140.597 L 390.513 97.687 C 390.513 87.707 388.16 84.777 382.95 84.777 C 379.977 84.777 376.567 86.347 373.547 89.327 L 373.527 149.85 C 376.55 152.873 379.977 154.403 382.95 154.403 C 388.16 154.403 390.513 150.577 390.513 140.597 Z M 407.057 79.767 C 408.263 83.777 409.473 90.237 409.473 99.684 L 409.473 139.6 C 409.473 148.823 408.683 155.33 407.48 159.556 C 405.067 166.973 399.81 170.823 392.617 170.823 C 386.194 170.823 379.61 166.96 373.574 159.49 L 373.547 169.54 L 355.584 169.54 L 355.584 35.811 L 373.547 35.811 L 373.527 79.414 C 379.364 72.231 385.97 68.144 392.617 68.144 Z M 321.662 169.537 L 321.662 158.56 C 314.469 166.8 308.379 170.96 301.736 170.96 C 295.909 170.96 291.859 168.213 289.836 163.243 C 288.602 160.223 287.729 155.507 287.729 148.58 L 287.729 69.744 L 306.689 69.744 L 306.689 150.577 C 307.132 153.373 308.322 154.4 310.732 154.4 C 314.362 154.4 317.645 151.247 321.662 145.583 L 321.662 69.744 L 340.619 69.744 L 340.619 169.537 Z M 498.333 45.7 C 498.333 45.7 495.423 25.257 486.487 16.253 C 475.157 4.44 462.452 4.38 456.627 3.687 C 414.927 0.687 352.377 0.687 352.377 0.687 L 352.247 0.687 C 352.247 0.687 289.692 0.687 247.992 3.687 C 242.166 4.38 229.469 4.44 218.132 16.253 C 209.199 25.257 206.292 45.7 206.292 45.7 C 206.292 45.7 203.309 69.703 203.309 93.709 L 203.309 116.216 C 203.309 140.222 206.292 164.229 206.292 164.229 C 206.292 164.229 209.199 184.669 218.132 193.675 C 229.469 205.492 244.362 205.115 250.992 206.352 C 274.832 208.632 352.307 209.335 352.307 209.335 C 352.307 209.335 414.927 209.241 456.627 206.242 C 462.451 205.548 475.154 205.492 486.484 193.675 C 495.42 184.669 498.33 164.229 498.33 164.229 C 498.33 164.229 501.31 140.222 501.31 116.216 L 501.31 93.709 C 501.31 69.703 498.33 45.699 498.33 45.699 Z" style="filter: none;" fill="#fff"/></g></svg>