<?xml version="1.0" encoding="utf-8"?>
<svg xmlns="http://www.w3.org/2000/svg" viewBox="0.5782 -35.4948 299.2744 256.1853" width="907.0703330206636px" height="222.05809836332807px" preserveAspectRatio="none"><g transform="matrix(1.198287010192871, 0, 0, 1.1028690338134766, 75.73812866210938, -971.8893432617188)" id="layer1" style=""><path id="path4193" d="M 163.752 903.595 C 164.117 903.595 186.636 952.71 166.722 966.652 C 149.32 978.837 157.425 974.285 154.076 976.012 C 143.869 981.275 135.616 982.817 130.587 983.035 C 125.989 983.234 113.235 983.773 102.247 984.233 C 91.258 984.692 81.825 985.282 81.286 985.543 C 80.676 985.837 85.608 990.017 94.298 996.574 C 121.929 1017.42 151.963 1041.05 182.381 1065.88 C 188.701 1071.04 188.573 1074.34 182.015 1075.34 C 168.263 1077.43 136.294 1079.77 107.287 1080.81 C 74.207 1082.01 64.225 1081.3 60.601 1077.49 C 59.904 1076.76 57.157 1072.04 54.495 1067 C 51.833 1061.96 42.097 1044.69 32.86 1028.61 C 23.623 1012.54 14.488 996.611 12.559 993.221 C 9.389 987.649 8.833 987.058 6.755 987.058 C 5.491 987.058 4.25 987.349 3.995 987.705 C 3.323 988.643 5.451 995.895 14.652 1024.04 C 17.564 1032.95 20.258 1041.03 20.635 1042 C 21.014 1042.96 21.955 1045.66 22.727 1047.98 C 24.632 1053.71 27.766 1062.44 30.062 1068.41 C 32.818 1075.57 32.922 1077.48 30.612 1078.55 C 28.489 1079.53 -3.375 1077.39 -25.003 1074.81 C -29.713 1074.24 -36.504 1073.43 -40.092 1073.01 C -52.189 1071.57 -53.103 1070.7 -53.892 1059.96 C -54.175 1056.08 -54.764 1048.16 -55.197 1042.35 C -55.998 1031.62 -57.711 1004.39 -59.273 977.55 C -60.802 951.294 -62.494 908.26 -62.659 891.452 C -62.821 875.168 -62.812 875.073 -60.913 873.327 C -58.791 871.379 -57.831 871.033 -52.161 870.183 C -48.106 869.574 -33.344 867.151 -26.226 865.925 C -18.623 864.615 -2.534 862.242 9.255 860.689 C 29.062 858.083 43.669 856.339 56.972 854.993 C 76.954 852.973 81.466 852.562 95.717 851.469 C 103.567 850.866 113.845 850.066 118.556 849.691 C 130.576 848.73 134.204 848.828 136.423 850.17 C 139.224 851.864 150.125 872.562 157.141 889.509 C 161.85 900.879 163.124 903.595 163.752 903.595 Z M 111.931 1066.3 C 133.441 1065.81 153.003 1064.63 154.037 1063.74 C 154.579 1063.28 151.291 1060.06 144.249 1054.16 C 138.417 1049.28 126.671 1039.38 118.148 1032.16 C 103.363 1019.64 86.643 1005.91 62.07 986.093 C 55.901 981.119 50.854 976.8 50.854 976.496 C 50.854 976.191 54.434 975.742 58.807 975.497 C 117.799 972.201 141.504 970.531 143.702 969.514 C 145.732 968.576 154.349 960.473 159.03 955.098 C 162.223 951.433 162.577 950.665 162.116 948.407 C 161.224 944.026 154.664 922.23 152.13 915.217 C 144.784 894.901 130.999 864.269 128.908 863.617 C 126.766 862.95 76.035 867.052 51.67 869.864 C 35.506 871.73 14.073 874.353 5.585 875.504 C -11.402 877.808 -44.474 882.733 -46.452 883.253 C -48.075 883.679 -48.1 880.171 -46.167 922.964 C -43.741 976.674 -37.56 1057.46 -35.757 1059.04 C -34.481 1060.15 9.834 1064.75 12.238 1064.02 C 12.895 1063.82 12.333 1061.02 10.391 1054.8 C 0.695 1023.76 -11.096 979.745 -9.973 978.776 C -9.798 978.626 -3.474 978.33 4.082 978.121 L 17.82 977.74 L 18.983 979.405 C 21.958 983.663 37.404 1007.28 51.858 1029.67 C 69.104 1056.39 73.11 1062.44 75.507 1065.42 L 77.068 1067.35 L 86.188 1067.01 C 91.204 1066.82 102.789 1066.5 111.931 1066.3 Z M 165.675 966.734 C 159.385 972.761 172.151 930.584 172.685 932.674 C 172.953 933.726 174.247 938.525 175.561 943.339 C 177.281 949.641 177.741 952.564 177.207 953.777 C 176.155 956.166 172.978 959.737 165.675 966.734 Z" style="opacity: 1; fill: rgb(226, 35, 26); fill-opacity: 1; stroke: rgb(0, 0, 0); stroke-width: 0.609826px; stroke-opacity: 0; transform-origin: -63.132px -131.579px 0px;"/><path id="path4197" d="M -4.045 949.87 C -5.281 949.146 -6.487 937.343 -8.665 904.652 L -8.876 901.482 L -1.127 901.27 C 6.554 901.059 53.934 902.915 64.127 903.826 L 69.429 904.3 L 69.646 924.327 C 69.765 935.342 69.581 944.588 69.238 944.875 C 68.681 945.34 48.132 946.912 14.779 949.042 C 8.498 949.443 1.883 949.904 0.078 950.067 C -1.726 950.23 -3.581 950.141 -4.045 949.87 Z M 32.316 936.268 C 37.475 935.867 44.632 935.325 48.221 935.063 L 54.747 934.586 L 55.155 924.829 C 55.379 919.463 55.379 914.843 55.155 914.562 C 54.055 913.185 6.793 911.615 5.986 912.928 C 5.628 913.511 7.619 933.625 8.291 936.206 C 8.702 937.785 8.892 937.815 15.824 937.411 C 19.735 937.183 27.157 936.669 32.316 936.268 Z" style="opacity: 1; fill: rgb(226, 35, 26); fill-opacity: 1; stroke: rgb(0, 0, 0); stroke-width: 0.609826px; stroke-opacity: 0; transform-origin: -63.132px -131.579px 0px;"/></g></svg>